# xmcd
#
# Track frame offsets:
#	150
#	27968
#	51415
#	74257
#	103245
#	130520
#	155397
#	178051
#	203397
#	225802
#
# Disc length: 3322 seconds
#
# Revision: 3
# Processed by: cddbd v1.5.2PL0 Copyright (c) Steve Scherf et al.
# Submitted via: EZCDAudioConverter 8.0.2.1
#
DISCID=790cf80a
DTITLE=Trường Vũ - Tâm Sự Người Hát Bài Quê Hương
DYEAR=2000
DGENRE=blues
TTITLE0=Tâm Sự Người hát Bài Quê Hương
TTITLE1=Chiều Tây Đô
TTITLE2=Em gái Trà Mi
TTITLE3=Túy ca
TTITLE4=Nửa đêm ngoài phố
TTITLE5=Thương hận
TTITLE6=Ve gọi tiếng hè
TTITLE7=Những chiều không có em
TTITLE8=Tình vẫn mong chờ
TTITLE9=Ly rượu tương phùng
EXTD=
EXTT0=
EXTT1=
EXTT2=
EXTT3=
EXTT4=
EXTT5=
EXTT6=
EXTT7=
EXTT8=
EXTT9=
PLAYORDER=
